<svg width="136" height="32" viewBox="0 0 136 32" fill="none" xmlns="http://www.w3.org/2000/svg">
<rect width="32" height="32" rx="16" fill="#FDF8F8"/>
<path d="M29.074 13.3887H28V13.3333H16V18.6667H23.5353C22.436 21.7713 19.482 24 16 24C11.582 24 7.99999 20.418 7.99999 16C7.99999 11.582 11.582 8 16 8C18.0393 8 19.8947 8.76934 21.3073 10.026L25.0787 6.25467C22.6973 4.03534 19.512 2.66667 16 2.66667C8.63666 2.66667 2.66666 8.63667 2.66666 16C2.66666 23.3633 8.63666 29.3333 16 29.3333C23.3633 29.3333 29.3333 23.3633 29.3333 16C29.3333 15.106 29.2413 14.2333 29.074 13.3887Z" fill="#FFC107"/>
<path d="M4.20401 9.794L8.58468 13.0067C9.77001 10.072 12.6407 8 16 8C18.0393 8 19.8947 8.76934 21.3073 10.026L25.0787 6.25467C22.6973 4.03534 19.512 2.66667 16 2.66667C10.8787 2.66667 6.43734 5.558 4.20401 9.794Z" fill="#FF3D00"/>
<path d="M16 29.3333C19.444 29.3333 22.5733 28.0153 24.9393 25.872L20.8127 22.38C19.429 23.4323 17.7383 24.0014 16 24C12.532 24 9.58734 21.7887 8.478 18.7027L4.13 22.0527C6.33667 26.3707 10.818 29.3333 16 29.3333Z" fill="#4CAF50"/>
<path d="M29.074 13.3887H28V13.3333H16V18.6667H23.5353C23.0095 20.1443 22.0622 21.4354 20.8107 22.3807L20.8127 22.3793L24.9393 25.8713C24.6473 26.1367 29.3333 22.6667 29.3333 16C29.3333 15.106 29.2413 14.2333 29.074 13.3887Z" fill="#1976D2"/>
<g clip-path="url(#clip0_4_26)">
<rect x="52" width="32" height="32" rx="16" fill="#FAF8F8"/>
<path d="M84 16C84 7.1635 76.8365 0 68 0C59.1635 0 52 7.16337 52 16C52 23.986 57.851 30.6054 65.5 31.8056V20.625H61.4375V16H65.5V12.475C65.5 8.465 67.8888 6.25 71.5434 6.25C73.294 6.25 75.125 6.5625 75.125 6.5625V10.5H73.1075C71.1198 10.5 70.5 11.7334 70.5 12.9987V16H74.9375L74.2281 20.625H70.5V31.8056C78.149 30.6054 84 23.9861 84 16Z" fill="#1877F2"/>
<path d="M74.2281 20.625L74.9375 16H70.5V12.9987C70.5 11.7332 71.1199 10.5 73.1075 10.5H75.125V6.5625C75.125 6.5625 73.294 6.25 71.5434 6.25C67.8888 6.25 65.5 8.465 65.5 12.475V16H61.4375V20.625H65.5V31.8056C66.327 31.9352 67.1629 32.0002 68 32C68.8371 32.0002 69.673 31.9353 70.5 31.8056V20.625H74.2281Z" fill="white"/>
</g>
<g clip-path="url(#clip1_4_26)">
<rect x="104" width="32" height="32" rx="16" fill="#FCF8F8"/>
<path d="M128.5 0H111.5C107.358 0 104 3.35786 104 7.5V24.5C104 28.6421 107.358 32 111.5 32H128.5C132.642 32 136 28.6421 136 24.5V7.5C136 3.35786 132.642 0 128.5 0Z" fill="url(#paint0_radial_4_26)"/>
<path d="M128.5 0H111.5C107.358 0 104 3.35786 104 7.5V24.5C104 28.6421 107.358 32 111.5 32H128.5C132.642 32 136 28.6421 136 24.5V7.5C136 3.35786 132.642 0 128.5 0Z" fill="url(#paint1_radial_4_26)"/>
<path d="M120.001 3.5C116.606 3.5 116.18 3.51488 114.847 3.5755C113.516 3.6365 112.608 3.84712 111.813 4.15625C110.991 4.4755 110.294 4.90262 109.599 5.59762C108.903 6.2925 108.476 6.98987 108.156 7.81175C107.846 8.60675 107.635 9.5155 107.575 10.8456C107.516 12.179 107.5 12.6053 107.5 16.0001C107.5 19.395 107.515 19.8197 107.576 21.153C107.637 22.4837 107.847 23.3921 108.156 24.1869C108.476 25.0091 108.903 25.7065 109.598 26.4013C110.293 27.0966 110.99 27.5247 111.812 27.844C112.607 28.1531 113.515 28.3637 114.846 28.4247C116.179 28.4854 116.605 28.5002 120 28.5002C123.395 28.5002 123.819 28.4854 125.153 28.4247C126.483 28.3637 127.393 28.1531 128.188 27.844C129.01 27.5247 129.706 27.0966 130.401 26.4013C131.096 25.7065 131.523 25.0091 131.844 24.1873C132.151 23.3921 132.362 22.4835 132.424 21.1532C132.484 19.82 132.5 19.395 132.5 16.0001C132.5 12.6053 132.484 12.1792 132.424 10.8459C132.362 9.51512 132.151 8.60688 131.844 7.81213C131.523 6.98988 131.096 6.2925 130.401 5.59762C129.706 4.90237 129.01 4.47525 128.188 4.15637C127.391 3.84712 126.482 3.63638 125.151 3.5755C123.818 3.51488 123.393 3.5 119.997 3.5H120.001ZM118.88 5.75262C119.213 5.75213 119.584 5.75262 120.001 5.75262C123.339 5.75262 123.734 5.76463 125.052 5.8245C126.271 5.88025 126.933 6.08388 127.373 6.255C127.957 6.4815 128.372 6.75238 128.81 7.19C129.247 7.6275 129.518 8.04412 129.745 8.6275C129.916 9.0675 130.12 9.729 130.176 10.9478C130.235 12.2655 130.248 12.6612 130.248 15.9972C130.248 19.3333 130.235 19.7291 130.176 21.0467C130.12 22.2655 129.916 22.927 129.745 23.3671C129.519 23.9505 129.247 24.3659 128.81 24.8031C128.372 25.2406 127.957 25.5114 127.373 25.738C126.933 25.9099 126.271 26.113 125.052 26.1688C123.735 26.2286 123.339 26.2416 120.001 26.2416C116.663 26.2416 116.268 26.2286 114.95 26.1688C113.731 26.1125 113.07 25.9089 112.629 25.7377C112.046 25.5111 111.629 25.2404 111.191 24.8029C110.754 24.3654 110.483 23.9498 110.256 23.3661C110.085 22.926 109.881 22.2645 109.826 21.0457C109.766 19.728 109.754 19.3323 109.754 15.9941C109.754 12.6561 109.766 12.2624 109.826 10.9446C109.881 9.72587 110.085 9.06437 110.256 8.62375C110.483 8.04037 110.754 7.62375 111.192 7.18625C111.629 6.74875 112.046 6.47787 112.629 6.25087C113.07 6.079 113.731 5.87587 114.95 5.81987C116.103 5.76775 116.55 5.75212 118.88 5.7495V5.75262ZM126.674 7.82812C125.846 7.82812 125.174 8.49938 125.174 9.32763C125.174 10.1558 125.846 10.8276 126.674 10.8276C127.502 10.8276 128.174 10.1558 128.174 9.32763C128.174 8.4995 127.502 7.82762 126.674 7.82762V7.82812ZM120.001 9.58075C116.456 9.58075 113.582 12.455 113.582 16.0001C113.582 19.5452 116.456 22.4181 120.001 22.4181C123.546 22.4181 126.42 19.5452 126.42 16.0001C126.42 12.4551 123.546 9.58075 120.001 9.58075H120.001ZM120.001 11.8334C122.302 11.8334 124.168 13.6988 124.168 16.0001C124.168 18.3013 122.302 20.1669 120.001 20.1669C117.7 20.1669 115.835 18.3013 115.835 16.0001C115.835 13.6988 117.7 11.8334 120.001 11.8334Z" fill="white"/>
</g>
<defs>
<radialGradient id="paint0_radial_4_26" cx="0" cy="0" r="1" gradientUnits="userSpaceOnUse" gradientTransform="translate(112.5 34.4646) rotate(-90) scale(31.7144 29.4969)">
<stop stop-color="#FFDD55"/>
<stop offset="0.1" stop-color="#FFDD55"/>
<stop offset="0.5" stop-color="#FF543E"/>
<stop offset="1" stop-color="#C837AB"/>
</radialGradient>
<radialGradient id="paint1_radial_4_26" cx="0" cy="0" r="1" gradientUnits="userSpaceOnUse" gradientTransform="translate(98.6399 2.30512) rotate(78.681) scale(14.1765 58.436)">
<stop stop-color="#3771C8"/>
<stop offset="0.128" stop-color="#3771C8"/>
<stop offset="1" stop-color="#6600FF" stop-opacity="0"/>
</radialGradient>
<clipPath id="clip0_4_26">
<rect x="52" width="32" height="32" rx="16" fill="white"/>
</clipPath>
<clipPath id="clip1_4_26">
<rect x="104" width="32" height="32" rx="16" fill="white"/>
</clipPath>
</defs>
</svg>
